<?xml version="1.0" encoding="UTF-8" standalone="no"?>
<svg
   xmlns:dc="http://purl.org/dc/elements/1.1/"
   xmlns:cc="http://creativecommons.org/ns#"
   xmlns:rdf="http://www.w3.org/1999/02/22-rdf-syntax-ns#"
   xmlns:svg="http://www.w3.org/2000/svg"
   xmlns="http://www.w3.org/2000/svg"
   xmlns:sodipodi="http://sodipodi.sourceforge.net/DTD/sodipodi-0.dtd"
   xmlns:inkscape="http://www.inkscape.org/namespaces/inkscape"
   role="img"
   aria-labelledby="starRating"
   viewBox="0 0 159.92166 29.466953"
   version="1.1"
   id="svg41"
   sodipodi:docname="trustpilot.svg"
   inkscape:version="0.92.4 (5da689c313, 2019-01-14)"
   width="159.92166"
   height="29.466953">
  <metadata
     id="metadata47">
    <rdf:RDF>
      <cc:Work
         rdf:about="">
        <dc:format>image/svg+xml</dc:format>
        <dc:type
           rdf:resource="http://purl.org/dc/dcmitype/StillImage" />
        <dc:title>4.6 out of five star rating on Trustpilot</dc:title>
      </cc:Work>
    </rdf:RDF>
  </metadata>
  <defs
     id="defs45" />
  <sodipodi:namedview
     pagecolor="#ffffff"
     bordercolor="#666666"
     borderopacity="1"
     objecttolerance="10"
     gridtolerance="10"
     guidetolerance="10"
     inkscape:pageopacity="0"
     inkscape:pageshadow="2"
     inkscape:window-width="1366"
     inkscape:window-height="705"
     id="namedview43"
     showgrid="false"
     inkscape:pagecheckerboard="true"
     inkscape:showpageshadow="false"
     inkscape:zoom="1.5418327"
     inkscape:cx="15.186648"
     inkscape:cy="18.141373"
     inkscape:window-x="-8"
     inkscape:window-y="-8"
     inkscape:window-maximized="1"
     inkscape:current-layer="svg41"
     fit-margin-top="0"
     fit-margin-left="0"
     fit-margin-right="0"
     fit-margin-bottom="0" />
  <title
     id="starRating"
     lang="en">4.6 out of five star rating on Trustpilot</title>
  <g
     id="g840"
     transform="scale(0.63602313)">
    <path
       class="tp-star__canvas"
       d="M 0,46.330002 H 46.375586 V 0 H 0 Z"
       id="path3"
       inkscape:connector-curvature="0"
       style="fill:#00b67a;fill-opacity:1" />
    <path
       class="tp-star__shape"
       d="M 39.533936,19.711433 13.230239,38.80065 17.068455,27.002823 7.02115,19.711433 H 19.440125 L 23.277542,7.912809 27.11496,19.711433 Z M 23.2785,31.510075 l 7.183595,-1.509576 2.862114,8.800152 z"
       id="path5"
       inkscape:connector-curvature="0"
       style="fill:#ffffff" />
    <path
       class="tp-star__canvas"
       d="M 51.24816,46.330002 H 97.623747 V 0 H 51.248161 Z"
       id="path9"
       inkscape:connector-curvature="0"
       style="fill:#00b67a;fill-opacity:1" />
    <path
       class="tp-star__canvas--half"
       d="M 51.24816,46.330002 H 74.435953 V 0 H 51.248161 Z"
       id="path11"
       inkscape:connector-curvature="0"
       style="fill:#00b67a;fill-opacity:1" />
    <path
       class="tp-star__shape"
       d="M 74.990978,31.32991 81.150908,30 84,39 74.339794,31.797214 64.30279,39 68.198426,27.159334 58,19.841466 H 70.605577 L 74.499595,8 78.395232,19.841466 H 91 L 74.990978,31.329909 Z"
       id="path13"
       inkscape:connector-curvature="0"
       style="fill:#ffffff" />
    <path
       class="tp-star__canvas"
       d="m 102.53221,46.330002 h 46.37558 V 0 h -46.37558 z"
       id="path17"
       inkscape:connector-curvature="0"
       style="fill:#00b67a;fill-opacity:1" />
    <path
       class="tp-star__canvas--half"
       d="M 102.53221,46.330002 H 125.72 V 0 h -23.18779 z"
       id="path19"
       inkscape:connector-curvature="0"
       style="fill:#00b67a;fill-opacity:1" />
    <path
       class="tp-star__shape"
       d="m 142.06699,19.711433 -26.30369,19.089217 3.83821,-11.797827 -10.0473,-7.291391 h 12.41897 l 3.83742,-11.798624 3.83742,11.798624 z m -16.25543,11.798642 7.18359,-1.509576 2.86212,8.800152 z"
       id="path21"
       inkscape:connector-curvature="0"
       style="fill:#ffffff" />
    <path
       class="tp-star__canvas"
       d="m 153.81546,46.330002 h 46.37558 V 0 h -46.37558 z"
       id="path25"
       inkscape:connector-curvature="0"
       style="fill:#dcdce6" />
    <path
       class="tp-star__canvas--half"
       d="m 153.81546,46.330002 h 23.18779 V 0 h -23.18779 z"
       id="path27"
       inkscape:connector-curvature="0"
       style="fill:#00b67a;fill-opacity:1" />
    <path
       class="tp-star__shape"
       d="m 193.34835,19.711433 -26.30289,19.089217 3.83741,-11.797827 -10.0473,-7.291391 h 12.41897 l 3.83742,-11.798624 3.83742,11.798624 z m -16.25543,11.798642 7.18359,-1.509576 2.86212,8.800152 z"
       id="path29"
       inkscape:connector-curvature="0"
       style="fill:#ffffff" />
    <path
       class="tp-star__canvas"
       d="M 205.06442,46.330002 H 251.44 V 0 h -46.37558 z"
       id="path33"
       inkscape:connector-curvature="0"
       style="fill:#dcdce6" />
    <path
       class="tp-star__canvas--half"
       d="m 205.06442,46.330002 h 23.18779 V 0 h -23.18779 z"
       id="path35"
       inkscape:connector-curvature="0"
       style="fill:#dcdce6" />
    <path
       class="tp-star__shape"
       d="m 244.59702,19.711433 -26.3029,19.089218 3.83742,-11.797827 -10.0473,-7.291391 h 12.41897 l 3.83742,-11.798624 3.83742,11.798624 z m -16.25543,11.798642 7.18359,-1.509576 2.86211,8.800152 z"
       id="path37"
       inkscape:connector-curvature="0"
       style="fill:#ffffff" />
  </g>
</svg>
