<?xml version="1.0" encoding="UTF-8"?>
<svg version="1.1" xmlns="http://www.w3.org/2000/svg" width="5101" height="1324">
<path d="M0 0 C0.33 0 0.66 0 1 0 C1.86001081 29.00762631 2.35825121 58.01619025 2.77775049 87.0331496 C2.87157068 93.48824916 2.96798052 99.94331016 3.0640564 106.39837646 C3.22974835 117.54822761 3.39375528 128.69810271 3.55673218 139.84799385 C3.72783824 151.55312293 3.89997738 163.25823615 4.07339478 174.96333122 C4.08427169 175.69749573 4.0951486 176.43166023 4.10635511 177.18807214 C4.16163925 180.91916474 4.2169435 184.65025704 4.27225697 188.3813492 C4.66265258 214.71636667 5.05119938 241.05141111 5.43847656 267.38647461 C5.46180693 268.97290756 5.48513734 270.55934051 5.50846779 272.14577346 C5.52002633 272.93174074 5.53158487 273.71770801 5.54349366 274.52749247 C5.60195195 278.50258126 5.66041126 282.47767004 5.71887207 286.45275879 C5.73046031 287.24072467 5.74204856 288.02869055 5.75398796 288.84053418 C6.02272231 307.11301566 6.29202183 325.3854888 6.56152344 343.65795898 C6.5730613 344.44026666 6.58459915 345.22257433 6.59648664 346.0285883 C6.86093291 363.95865153 7.12564358 381.88871083 7.39085388 399.81876278 C7.40206285 400.57658466 7.41327181 401.33440654 7.42482045 402.11519272 C7.52576978 408.94008229 7.62672927 415.7649717 7.72774303 422.58986031 C7.97771085 439.47873348 8.22706639 456.36761528 8.47478792 473.25652156 C8.64758859 485.03739394 8.82111963 496.81825536 8.99537015 508.59910638 C9.08922403 514.94703858 9.18274296 521.29497518 9.27524948 527.64292717 C9.6292233 551.91532831 10.00051159 576.18742185 10.43869841 600.45846873 C10.47965832 602.74109761 10.51978551 605.02374162 10.55898702 607.30640138 C12.27018127 706.31065258 44.27689114 798.14113828 131.59570312 893.65039062 C134.62638255 896.56304637 137.78273206 899.29725837 141 902 C142.3921875 903.20849609 142.3921875 903.20849609 143.8125 904.44140625 C215.78617925 966.68251183 306.40102377 995.37205539 419.36214668 995.2562669 C423.36828579 995.2394374 427.37439541 995.22825625 431.38055888 995.21988068 C432.39428301 995.2177556 432.39428301 995.2177556 433.42848641 995.21558758 C434.80304747 995.21272951 436.17760854 995.2098814 437.55216964 995.20704312 C454.36517063 995.17107504 471.17792657 995.09581119 487.99073827 995.01018129 C491.23160239 994.99375925 494.47246901 994.97784111 497.71333501 994.96179458 C531.71288692 994.79103946 565.71171131 994.53924804 599.71055975 994.26430434 C609.62753648 994.18419381 619.54453132 994.10664652 629.46153931 994.0305084 C630.19321739 994.02488966 630.92489548 994.01927093 631.67874562 994.01348193 C635.41873479 993.98477087 639.1587242 993.95609275 642.89871371 993.92742581 C669.77100107 993.72138099 696.64325139 993.51081499 723.51548386 993.29774094 C750.64871254 993.08261325 777.78195698 992.86964367 804.91522217 992.65916824 C805.77929032 992.65246466 806.64335848 992.64576107 807.53361052 992.63885435 C815.45505363 992.57739923 823.37649693 992.51596718 831.29794043 992.45456258 C851.13751854 992.30077115 870.97709421 992.14666773 890.81666827 991.99235535 C891.72456037 991.98529397 892.63245246 991.9782326 893.56785644 991.97095725 C938.04643307 991.62498551 982.52498174 991.27546497 1027.00352859 990.9256897 C1042.61214946 990.8029474 1058.22077046 990.68022221 1073.82939196 990.55755997 C1074.80000648 990.54993226 1075.770621 990.54230456 1076.77064808 990.53444571 C1121.94328981 990.17947151 1167.11595069 989.82696367 1212.28861649 989.47506612 C1215.25198599 989.45198118 1218.21535549 989.4288951 1221.17872498 989.40580872 C1239.05063801 989.26657718 1256.92255123 989.12737104 1274.79446468 988.98819421 C1319.20086602 988.64237997 1363.60726499 988.29626152 1408.01366234 987.94993591 C1409.02399369 987.94205649 1410.03432504 987.93417706 1411.07527249 987.92605887 C1476.37638128 987.41678269 1541.67748021 986.9062557 1606.97857094 986.39466858 C1608.01911456 986.38651668 1609.05965818 986.37836478 1610.13173343 986.36996585 C1641.79860075 986.12187635 1673.46546733 985.87369358 1705.13233378 985.62549252 C1740.17407837 985.35083999 1775.2158231 985.07620339 1810.25756836 984.80163574 C1811.31145633 984.79337801 1812.3653443 984.78512027 1813.45116827 984.7766123 C1913.76847056 983.99058182 2014.0857929 983.20712502 2114.40312043 982.42432294 C2118.65842574 982.39111751 2122.91373104 982.35791133 2127.16903635 982.32470512 C2166.33073907 982.01910746 2205.49244203 981.71353984 2244.65414528 981.40800995 C2245.6955973 981.39988479 2246.73704933 981.39175964 2247.81006051 981.38338827 C2250.96329895 981.35878749 2254.1165374 981.33418671 2257.26977584 981.30958594 C2342.42953793 980.64519076 2427.58929798 979.98053372 2512.7490567 979.31570673 C2515.7529653 979.29225582 2518.75687389 979.26880512 2521.76078248 979.24535447 C2619.24649682 978.48431077 2716.73220746 977.72279672 3062.15087891 975.01953125 C3062.99322329 975.01293561 3063.83556768 975.00633996 3064.70343766 974.99954445 C3125.30191276 974.52505195 3185.90038738 974.0504961 3246.49886096 973.57580853 C3247.69297225 973.56645466 3248.88708355 973.5571008 3250.11738004 973.54746349 C3273.41158682 973.36499117 3296.70579339 973.18249282 3320 973 C3319.67 1014.25 3319.34 1055.5 3319 1098 C3266.12752076 1098 3266.12752076 1098 3249.30522144 1097.60475552 C3247.27871877 1097.56109438 3245.25220653 1097.5178757 3243.22568624 1097.47504027 C3237.80394546 1097.35922201 3232.38235708 1097.23736162 3226.96077749 1097.11425848 C3220.98487063 1096.9797411 3215.00883307 1096.85125481 3209.0328123 1096.72191578 C3198.56788883 1096.49462696 3188.10305007 1096.26368895 3177.63826428 1096.03015842 C3166.37470281 1095.77882357 3155.11109382 1095.52978404 3143.84742357 1095.28337096 C3142.76785185 1095.25975134 3142.76785185 1095.25975134 3141.6664706 1095.23565456 C3137.99035323 1095.15523578 3134.3142351 1095.07485223 3130.6381167 1094.99448062 C3103.92380733 1094.41034524 3077.20960862 1093.8212731 3050.49546432 1093.22964096 C3023.44638703 1092.6306073 2996.39726175 1092.03380811 2969.34807587 1091.43969727 C2968.49256727 1091.42090579 2967.63705867 1091.40211432 2966.75562557 1091.38275341 C2958.9144611 1091.2105208 2951.07329611 1091.03831215 2943.23213049 1090.8661321 C2923.57488832 1090.43448738 2903.91765361 1090.00250305 2884.2604239 1089.57029128 C2883.35994797 1089.55049235 2882.45947203 1089.53069341 2881.53170895 1089.51029451 C2837.21350327 1088.53583081 2792.89538184 1087.55755447 2748.57726669 1086.57898331 C2732.98567692 1086.23471361 2717.39408685 1085.89045683 2701.80249548 1085.5462594 C2700.34835019 1085.51415784 2700.34835019 1085.51415784 2698.86482823 1085.48140775 C2653.87340551 1084.4882011 2608.88192791 1083.49749143 2563.8904368 1082.50738776 C2560.94411725 1082.44254944 2557.99779772 1082.37770982 2555.0514782 1082.31286977 C2537.28273065 1081.92183108 2519.51398264 1081.53081357 2501.74523404 1081.13982224 C2457.57285123 1080.1678315 2413.40047577 1079.19550704 2369.22810555 1078.22294426 C2368.22259406 1078.20080561 2367.21708258 1078.17866696 2366.18110106 1078.15585744 C2301.08569064 1076.7226284 2235.9903113 1075.28799295 2170.89495659 1073.85223579 C2169.85619047 1073.8293246 2168.81742436 1073.8064134 2167.74718048 1073.78280792 C2135.07315136 1073.06214212 2102.39912438 1072.34137983 2069.72509766 1071.62060547 C2035.80127071 1070.87226108 2001.8774432 1070.12394234 1967.95361328 1069.37573242 C1966.90188056 1069.35253581 1965.85014784 1069.3293392 1964.76654443 1069.30543966 C1864.96301706 1067.10422201 1765.1594091 1064.90666878 1665.3557836 1062.70990571 C1660.07426487 1062.59365477 1654.79274616 1062.47740275 1649.51122745 1062.36115084 C1631.5961127 1061.96682019 1613.68099787 1061.57249293 1595.76588305 1061.1781656 C1587.36389728 1060.99323051 1578.96191152 1060.80829488 1570.55992576 1060.62335904 C1565.31891851 1060.50799946 1560.07791124 1060.39264033 1554.83690396 1060.27728208 C1490.8498216 1058.86888136 1426.86274874 1057.46004977 1362.87568855 1056.05064201 C1361.87031502 1056.02849721 1360.86494148 1056.0063524 1359.82910208 1055.98353654 C1312.69098402 1054.94524841 1265.55286959 1053.90679528 1218.41475785 1052.86822021 C1216.94488942 1052.83583519 1216.94488942 1052.83583519 1215.44532667 1052.80279593 C1195.74776564 1052.36880694 1176.05020481 1051.93480939 1156.35264437 1051.50079345 C1145.5925368 1051.26370536 1134.83242916 1051.02662076 1124.07232141 1050.78954077 C1122.62264266 1050.75759965 1122.62264266 1050.75759965 1121.14367748 1050.72501325 C1091.81624773 1050.07883765 1062.4888139 1049.43284789 1033.16137681 1048.78700592 C1028.27681766 1048.67943915 1023.39225855 1048.57187101 1018.50769943 1048.46430288 C1017.0592863 1048.43240582 1017.0592863 1048.43240582 1015.5816123 1048.39986438 C939.09920915 1046.71556215 862.61682589 1045.03036497 786.13449977 1043.34256831 C779.15375704 1043.18851945 772.17301416 1043.03447772 765.19227119 1042.88043971 C763.46164515 1042.84225143 761.73101911 1042.80406278 760.00039308 1042.76587376 C733.00720771 1042.17023028 706.01400108 1041.57555792 679.02078157 1040.98146362 C651.62409834 1040.37848406 624.22744096 1039.77434258 596.83081312 1039.1688515 C593.89159608 1039.10389668 590.95237892 1039.038947 588.01316167 1038.97400139 C586.93253066 1038.95012283 586.93253066 1038.95012283 585.83006872 1038.92576188 C575.99039219 1038.70836076 566.15070041 1038.49166329 556.31099449 1038.27559672 C528.81402045 1037.67176712 501.31717411 1037.06328678 473.82084992 1036.43045198 C462.68522456 1036.17428842 451.54952158 1035.9234116 440.41355773 1035.68239481 C433.30586388 1035.52794511 426.19838834 1035.36531868 419.09103792 1035.19580106 C415.16860555 1035.10242985 411.24618999 1035.01209634 407.32345719 1034.93223911 C391.95424842 1034.61689547 376.66909283 1033.96489488 361.35864055 1032.57263386 C360.68579007 1032.51194914 360.0129396 1032.45126442 359.31969971 1032.38874077 C314.09557133 1028.23700866 270.33604309 1015.563206 229 997 C227.71609375 996.43031494 227.71609375 996.43031494 226.40625 995.84912109 C192.78209298 980.84892124 161.73908003 960.13261596 134 936 C132.89591797 935.04673828 132.89591797 935.04673828 131.76953125 934.07421875 C129.83533251 932.39482463 127.91664657 930.699395 126 929 C125.27200195 928.35611328 124.54400391 927.71222656 123.79394531 927.04882812 C117.66098232 921.58124551 111.74410903 915.93721441 105.9375 910.125 C105.05843994 909.24513428 104.17937988 908.36526855 103.27368164 907.45874023 C98.20954017 902.34641833 93.39219694 897.22763818 88.98046875 891.5390625 C87.10529201 889.13498975 85.13970209 886.83325935 83.13671875 884.53540039 C75.83293667 876.1193346 69.37345224 867.13192673 63 858 C62.5580127 857.36868164 62.11602539 856.73736328 61.66064453 856.08691406 C12.58425494 785.52882484 -9.83873488 702.32903015 -9.30917247 616.9544878 C-9.29428154 614.28844014 -9.28532093 611.62243124 -9.27810752 608.95635223 C-9.13694707 557.36329315 -8.27736396 505.77386757 -7.48341778 454.18757242 C-7.3268023 444.00605838 -7.17319363 433.82450208 -7.02148247 423.64291382 C-7.01053682 422.90849708 -6.99959117 422.17408035 -6.98831383 421.41740856 C-6.94385127 418.43366599 -6.89940506 415.44992316 -6.85498081 412.46618002 C-6.44272252 384.77781614 -6.02375378 357.08955785 -5.60112052 329.40135057 C-5.22742997 304.91753508 -4.85831316 280.43365503 -4.4934082 255.94970703 C-4.48173882 255.16678757 -4.47006944 254.3838681 -4.45804643 253.57722381 C-4.4344976 251.99729098 -4.41094911 250.41735815 -4.38740097 248.83742531 C-4.32871981 244.90031431 -4.27003406 240.96320338 -4.21134281 237.02609253 C-4.19975882 236.24896188 -4.18817483 235.47183124 -4.17623981 234.67115118 C-3.81340072 210.33282386 -3.44650723 185.99455757 -3.07900669 161.65630026 C-2.92508333 151.46202921 -2.77202708 141.26774548 -2.61953783 131.07345288 C-2.42349394 117.9688445 -2.22538885 104.86426992 -2.02414305 91.75974029 C-1.92744975 85.46104785 -1.83159203 79.16234605 -1.73820877 72.86360359 C-1.01023547 23.84341739 -1.01023547 23.84341739 0 0 Z " fill="#9B1915" transform="translate(891,167)"/>
<path d="M0 0 C6.83857962 6.83857962 10.55292508 14.30575541 10.57751465 24.0385437 C10.58408655 25.01547784 10.58408655 25.01547784 10.59079123 26.01214802 C10.6030519 28.18118411 10.60130714 30.34997638 10.59960938 32.51904297 C10.60563792 34.08015804 10.61256327 35.64126986 10.62031555 37.20237732 C10.63518321 40.55972112 10.64394866 43.91700566 10.64802551 47.27437973 C10.65476137 52.59729645 10.67654615 57.92008751 10.70056152 63.24295044 C10.7494955 74.55777073 10.7817813 85.87261786 10.8125 97.1875 C10.84564969 109.37064156 10.88185704 121.55373384 10.93663073 133.73680031 C10.9597934 139.01269652 10.9736739 144.2885062 10.98012543 149.56444812 C10.98612772 152.87030186 11.000279 156.17608696 11.01646996 159.48190498 C11.02227207 160.99743429 11.02483387 162.51298065 11.02363014 164.02852058 C11.00448364 197.79365547 20.49340962 227.24660687 43.3125 252.3125 C43.88226562 252.96476562 44.45203125 253.61703125 45.0390625 254.2890625 C63.46383649 274.22561281 92.87307921 285.9192019 119.5222168 287.43847656 C149.7382918 288.50164099 177.88874003 279.65072044 201.3125 260.3125 C202.1375 259.6628125 202.9625 259.013125 203.8125 258.34375 C216.63105725 247.66161896 225.71963551 233.47851813 232.3125 218.3125 C232.79203125 217.24902344 233.2715625 216.18554688 233.765625 215.08984375 C242.43457669 194.43580524 241.89824813 173.28285203 241.85414171 151.33116746 C241.84977497 146.78255241 241.86966956 142.23404421 241.88729858 137.68547058 C241.9173657 129.09308072 241.92923597 120.50078306 241.93287504 111.90834492 C241.93956195 96.49981919 241.96865039 81.09135663 242.0179714 65.68290919 C242.03440608 60.28516771 242.03989908 54.88756035 242.03638101 49.48979628 C242.03594289 46.13518415 242.04352302 42.78062252 242.05305672 39.42602539 C242.05573007 37.876479 242.05500389 36.32692227 242.05054665 34.77737999 C242.02005244 23.38610741 242.15472789 11.95955245 250.328125 3.13671875 C258.26494359 -4.24668221 265.53894242 -6.65933384 276.3125 -6.6875 C285.00048017 -6.05213102 291.89296699 -1.60252508 297.6875 4.75 C302.71550114 11.05937539 304.43369451 17.9536152 304.44392776 25.9363451 C304.44776891 27.06360313 304.45161005 28.19086116 304.4555676 29.35227853 C304.45470112 30.58590165 304.45383463 31.81952476 304.45294189 33.0905304 C304.45739858 35.06226999 304.45739858 35.06226999 304.4619453 37.0738427 C304.47000538 40.72172663 304.47180433 44.36959086 304.47254276 48.01748264 C304.4743953 51.9531379 304.48194418 55.888783 304.48867798 59.82443237 C304.50225992 68.43497587 304.50828724 77.04551471 304.51268864 85.65606713 C304.51545415 91.04121705 304.51969234 96.42636519 304.52419281 101.8115139 C304.53639069 116.74230111 304.54668547 131.67308689 304.5500679 146.60387897 C304.55028747 147.55963953 304.55050703 148.51540009 304.55073325 149.50012309 C304.55095153 150.45810967 304.55116981 151.41609624 304.5513947 152.40311271 C304.55183816 154.34418126 304.55228472 156.28524981 304.55273438 158.22631836 C304.5529558 159.1891452 304.55317723 160.15197205 304.55340537 161.14397546 C304.55734288 176.70209475 304.57476243 192.26016691 304.5980939 207.81826804 C304.62189436 223.81951967 304.63427387 239.82074777 304.63543582 255.82201737 C304.63634829 264.79441434 304.64199085 273.76675006 304.66025543 282.73913002 C304.67577494 290.38984749 304.68070834 298.04048483 304.67251733 305.69121508 C304.66865077 309.58482078 304.66934024 313.47826578 304.68357468 317.37185097 C304.75725939 338.75866604 304.44021667 360.37409392 298.625 381.125 C298.37081299 382.06037598 298.11662598 382.99575195 297.85473633 383.95947266 C289.77522637 412.49046891 274.25625644 437.61193619 254.3125 459.3125 C253.54292969 460.15425781 252.77335937 460.99601562 251.98046875 461.86328125 C221.4806658 493.72114593 176.75334158 511.18993714 133.1875 512.53125 C81.34618703 513.55532364 35.81532176 494.60579792 -1.375 458.9375 C-15.5416713 444.35107548 -35.6677281 420.74467917 -35.984375 399.4765625 C-35.19622945 391.07659016 -32.93574015 383.10527719 -26.83984375 377.03515625 C-18.8471848 370.63812794 -10.76177619 368.06626704 -0.59375 368.73828125 C8.68004058 370.10152847 15.64471519 374.49567756 21.52734375 381.70703125 C24.19038814 385.59379407 26.26300914 389.74028797 28.421875 393.921875 C42.48362723 419.14005876 67.75864245 436.80168816 95.11474609 444.7668457 C126.72358902 453.40847898 158.44418614 448.38489831 186.68359375 432.5 C212.29506353 417.45607202 230.63774248 391.83918273 238.3125 363.3125 C241.30998521 351.05363071 241.68540154 339.37549468 241.5 326.8125 C241.48490419 325.00652176 241.47122457 323.2005311 241.45898438 321.39453125 C241.4264164 317.03353912 241.37491407 312.67316286 241.3125 308.3125 C240.56009033 308.96259033 239.80768066 309.61268066 239.0324707 310.2824707 C232.81295583 315.59809202 226.59869142 320.38516044 219.5 324.5 C218.20727173 325.2583313 218.20727173 325.2583313 216.88842773 326.03198242 C192.78311237 339.98510093 164.95698913 349.34631226 136.88671875 349.515625 C136.10576843 349.52268463 135.32481812 349.52974426 134.52020264 349.53701782 C102.10747167 349.76358741 102.10747167 349.76358741 88.3125 346.3125 C87.50216309 346.11914062 86.69182617 345.92578125 85.85693359 345.7265625 C54.91140609 338.18086097 27.38251254 323.23596071 4.3125 301.3125 C3.8071875 300.83441895 3.301875 300.35633789 2.78125 299.86376953 C-21.73544735 276.51839275 -38.07863238 246.84476104 -46.5 214.125 C-46.69489014 213.37895508 -46.88978027 212.63291016 -47.09057617 211.86425781 C-50.36981389 198.35420308 -50.98811111 184.76657905 -50.97802734 170.94165039 C-50.98403033 169.26918239 -50.99083985 167.59671713 -50.99838257 165.92425537 C-51.01585269 161.43505709 -51.02072931 156.94593528 -51.02201414 152.45670629 C-51.02344518 149.64505886 -51.02773223 146.83343033 -51.03300858 144.02178764 C-51.05143357 134.19476988 -51.05968716 124.36780596 -51.05810547 114.54077148 C-51.05690048 105.40534383 -51.07809209 96.27015102 -51.1095928 87.13478285 C-51.13576899 79.26091283 -51.14647247 71.38711961 -51.14519465 63.51320642 C-51.14468617 58.82322941 -51.15030848 54.13346245 -51.17155075 49.44352913 C-51.19096037 45.03969486 -51.19103919 40.6362709 -51.17651749 36.23242188 C-51.1744329 34.62201269 -51.17910934 33.01157755 -51.1912384 31.40121269 C-51.27514795 19.4850374 -49.92103569 10.98746791 -41.6015625 2.1015625 C-29.31981939 -9.37810759 -13.72372393 -8.617222 0 0 Z " fill="#9B1915" transform="translate(3874.6875,593.6875)"/>
<path d="M0 0 C0.9189849 -0.00467997 1.83796981 -0.00935994 2.78480273 -0.01418173 C5.84812409 -0.02609704 8.91099519 -0.01668754 11.97431946 -0.00723267 C14.177854 -0.01130026 16.38138651 -0.0166432 18.58491516 -0.02316284 C24.56298446 -0.03683017 30.54089826 -0.03153733 36.51897025 -0.02202559 C42.79387048 -0.01441363 49.06875767 -0.02148002 55.34365845 -0.02618408 C66.57015554 -0.03199189 77.79658889 -0.02267333 89.02307097 -0.00740607 C99.15936206 0.00595374 109.29554984 0.00370403 119.43183899 -0.01016235 C131.23473935 -0.02630139 143.03758943 -0.03214513 154.84050113 -0.02332556 C161.07575727 -0.01867683 167.31094264 -0.01794521 173.54619408 -0.02793503 C179.42401205 -0.03669356 185.30163817 -0.03042292 191.17943573 -0.01325226 C193.32015733 -0.00933197 195.46089547 -0.01034343 197.60161018 -0.01704025 C214.80806077 -0.06584274 232.38464741 0.73535401 248.87397766 6.13095093 C249.68898743 6.38771606 250.50399719 6.6444812 251.34370422 6.9090271 C292.82349263 20.3620408 327.50921427 49.78397023 347.63520813 88.44345093 C367.06005639 126.71277624 370.16871036 171.21407998 357.35054016 212.17782593 C352.44057647 226.93539438 345.45223174 240.63912156 336.56147766 253.38095093 C336.15767883 253.95973999 335.75388 254.53852905 335.33784485 255.13485718 C319.97108565 276.70482453 299.95432015 293.28442738 276.56147766 305.38095093 C275.94836731 305.70047729 275.33525696 306.02000366 274.7035675 306.34921265 C259.26034898 314.28444688 242.76156999 319.13861558 225.56147766 321.38095093 C224.92213854 321.46931937 224.28279942 321.55768782 223.62408638 321.64873409 C214.86411616 322.69427391 206.06641776 322.5134232 197.26020813 322.49447632 C195.41639202 322.49419388 193.57257581 322.49435329 191.72875977 322.49491882 C186.74809587 322.49520458 181.76745627 322.48934374 176.786798 322.48234487 C171.57246113 322.47607436 166.35812363 322.47550461 161.14378357 322.47431946 C151.28076436 322.47121702 141.41775629 322.46301833 131.55474198 322.45296997 C120.32135168 322.44177501 109.08796083 322.43628987 97.85456634 322.43127453 C74.75686394 322.42083478 51.65917143 322.40325645 28.56147766 322.38095093 C28.56424304 323.18694449 28.56700842 323.99293806 28.5698576 324.82335567 C28.63617261 344.4544042 28.68578509 364.08543031 28.71691418 383.71656704 C28.73236892 393.21012335 28.75343179 402.70360479 28.78779602 412.19711304 C28.81774104 420.47372507 28.83706279 428.75028286 28.84374315 437.02694756 C28.84764676 441.40750823 28.85679172 445.78791376 28.87866783 450.16842461 C28.89911367 454.29619178 28.90529518 458.42374072 28.9008007 462.55155373 C28.9016223 464.06197676 28.90753962 465.5724075 28.91909409 467.08278656 C29.00932986 479.49272539 27.95088632 488.00355036 19.05757141 497.13876343 C11.25030565 504.15186287 3.7483332 505.29816618 -6.43852234 504.79501343 C-15.21889389 504.06467583 -21.50632502 499.73015078 -27.43852234 493.38095093 C-35.18085595 483.63985464 -33.72438947 469.99541664 -33.69248962 458.27584839 C-33.69479601 456.43055775 -33.69797373 454.58526803 -33.70194411 452.73998022 C-33.71027627 447.68535124 -33.706174 442.63079799 -33.69997168 437.57616878 C-33.69544174 432.11870106 -33.70243364 426.66124626 -33.70793152 421.20378113 C-33.71682136 410.5189442 -33.71490532 399.83413538 -33.70910624 389.14929736 C-33.70458815 380.46493145 -33.70397748 371.78057341 -33.70615387 363.09620667 C-33.70646034 361.85986232 -33.7067668 360.62351797 -33.70708255 359.34970865 C-33.70772201 356.8380423 -33.70837044 354.32637595 -33.70902774 351.8147096 C-33.71456731 328.93799167 -33.70882407 306.06128645 -33.69834254 283.18457123 C-33.6888517 262.3113836 -33.68970097 241.43822038 -33.69926453 220.56503296 C-33.70997928 197.10097337 -33.71418052 173.63692543 -33.70804 150.17286348 C-33.70740291 147.67047405 -33.70677416 145.16808462 -33.70615387 142.66569519 C-33.70584532 141.4344949 -33.70553677 140.20329461 -33.70521887 138.93478522 C-33.70349254 130.26157894 -33.70640569 121.58838133 -33.71111298 112.91517639 C-33.71672407 102.34441858 -33.71520052 91.77369047 -33.70455149 81.20293605 C-33.69929789 75.81035151 -33.69723278 70.41781648 -33.70384979 65.02523232 C-33.70981772 60.08691146 -33.70652013 55.14868593 -33.69589469 50.2103737 C-33.69366425 48.42585065 -33.69478893 46.64131952 -33.69964626 44.85680169 C-33.76199599 20.0430997 -33.76199599 20.0430997 -25.43852234 9.38095093 C-18.14956508 2.22753213 -9.95363114 -0.07877238 0 0 Z M28.56147766 61.38095093 C28.56147766 127.05095093 28.56147766 192.72095093 28.56147766 260.38095093 C59.21022766 260.46345093 89.85897766 260.54595093 121.43647766 260.63095093 C131.08752747 260.66736694 140.73857727 260.70378296 150.68208313 260.74130249 C159.38900473 260.75468631 159.38900473 260.75468631 168.09593201 260.76272583 C171.95190274 260.76642856 175.80764963 260.78132213 179.66355896 260.80325317 C184.60288521 260.83096821 189.54189236 260.83886484 194.48128915 260.83324003 C196.28098541 260.83441382 198.08069442 260.84217943 199.88032317 260.85781145 C229.25566985 261.10083708 253.62610608 251.26273151 275.08882141 230.99423218 C286.36637952 219.36035312 294.56647554 204.73973295 299.56147766 189.38095093 C299.89921204 188.36001343 300.23694641 187.33907593 300.58491516 186.28720093 C307.17185611 161.87321798 302.41832539 135.05480311 290.78413391 113.01376343 C279.72722805 94.15597307 264.83173092 81.33088352 245.56147766 71.38095093 C244.61530579 70.87563843 243.66913391 70.37032593 242.69429016 69.84970093 C226.23511889 61.64512923 207.9849487 61.2270514 189.99458313 61.26742554 C188.20116236 61.26773229 186.40774147 61.26759767 184.61432076 61.26706028 C179.83510438 61.2668356 175.05591331 61.27260871 170.27670288 61.27967072 C165.78316676 61.28538848 161.28963662 61.28563508 156.7960968 61.28634644 C143.67622044 61.2915825 130.55634872 61.30554374 117.43647766 61.31845093 C88.10772766 61.33907593 58.77897766 61.35970093 28.56147766 61.38095093 Z " fill="#9B1915" transform="translate(3055.438522338867,438.6190490722656)"/>
<path d="M0 0 C2.5446451 2.29133202 4.96444702 4.69339416 7.375 7.125 C8.33986328 6.09052734 8.33986328 6.09052734 9.32421875 5.03515625 C24.58332007 -10.83343842 43.8192946 -22.15259875 65.375 -26.875 C66.09945312 -27.03726074 66.82390625 -27.19952148 67.5703125 -27.36669922 C90.61800787 -32.23020462 119.81723702 -33.27493068 142.375 -25.875 C143.41358154 -25.54556396 143.41358154 -25.54556396 144.47314453 -25.20947266 C172.04017498 -16.25699874 195.44589132 2.21754833 209.65234375 27.57421875 C221.94304642 52.90811609 226.84109635 79.07561116 226.79492188 107.02148438 C226.80228047 109.15567463 226.81087182 111.28986092 226.82058716 113.42404175 C226.84260709 119.16316959 226.84574428 124.90215309 226.84383965 130.64131737 C226.8437192 135.44791556 226.85231209 140.25448397 226.86061716 145.06107378 C226.87977536 156.39848388 226.88276051 167.73582035 226.87597656 179.07324219 C226.86931907 190.74898219 226.8922863 202.42440763 226.92929029 214.10008383 C226.95999714 224.15573995 226.97134691 234.21129481 226.96745348 244.26699686 C226.96538956 250.25981573 226.97081273 256.25238878 226.99534607 262.24516296 C227.01763088 267.87284215 227.01572057 273.50000768 226.99541855 279.12768936 C226.99201329 281.18758164 226.99707662 283.24750869 227.01140213 285.30735397 C227.08906633 297.3050007 227.10612237 306.53420928 218.875 316 C218.05 316.70125 217.225 317.4025 216.375 318.125 C215.59125 318.82625 214.8075 319.5275 214 320.25 C205.86304614 326.0621099 197.04190323 326.49825497 187.375 325.125 C178.30282467 322.38224932 172.08779861 317.23993111 167.22187996 309.22582626 C162.98696729 300.33561328 163.86166315 290.72716492 163.95263672 281.11816406 C163.9570443 279.09017232 163.9596512 277.06217599 163.96060181 275.03417969 C163.9664505 270.68094299 163.98488322 266.32800909 164.0132103 261.97486115 C164.05791986 255.08120633 164.07395283 248.18766228 164.08621216 241.29388428 C164.10894489 230.38144219 164.15036839 219.46916581 164.20000756 208.55681586 C164.28867112 189.03607529 164.35520418 169.51527924 164.40049565 149.99439025 C164.41723308 143.15233318 164.44520491 136.31044331 164.48244071 129.46846819 C164.50385452 125.19801567 164.51693973 120.92756451 164.52804184 116.65707397 C164.53493318 114.68915991 164.54530577 112.72125419 164.55957794 110.75337982 C164.65723483 96.97504056 164.16275118 83.6763094 160.125 70.375 C159.80402344 69.30415161 159.80402344 69.30415161 159.4765625 68.21166992 C157.60327167 62.27756366 155.03533251 57.17645619 151.375 52.125 C150.653125 51.073125 149.93125 50.02125 149.1875 48.9375 C137.85815299 37.60815299 121.99414052 32.15526219 106.25 31.875 C87.35637533 32.19878187 71.26893774 35.61407828 56.6875 48.5 C55.924375 49.36625 55.16125 50.2325 54.375 51.125 C53.82199219 51.74761719 53.26898437 52.37023437 52.69921875 53.01171875 C41.10615126 66.83899625 38.1857007 84.9006359 38.28833008 102.41894531 C38.29063063 103.54994911 38.29293118 104.68095291 38.29530144 105.84622955 C38.30065438 108.3209918 38.30818142 110.79575007 38.31760216 113.27050018 C38.34017015 119.42136798 38.34738674 125.57224534 38.35508263 131.72314692 C38.35794644 133.93228753 38.36133013 136.141427 38.36472225 138.35056686 C38.40040842 163.88184444 38.27842995 189.41306033 38.13929558 214.94390106 C38.09376118 223.34165865 38.05426469 231.73936309 38.02856445 240.13720703 C38.00557338 247.64927765 37.97227272 255.16121718 37.92629844 262.67318368 C37.90259955 266.59671405 37.88371314 270.52011787 37.87738609 274.44371796 C37.87133279 278.08567117 37.85132581 281.72728485 37.82072449 285.36911201 C37.80784672 287.32173337 37.80950671 289.27443399 37.8117218 291.22709656 C37.69230298 302.44618298 35.79473996 309.74364311 27.87109375 317.8828125 C20.06382799 324.89591194 12.56185554 326.04221525 2.375 325.5390625 C-6.31780664 324.81600842 -12.83947814 320.54023853 -18.625 314.125 C-24.18677011 306.18668717 -24.93019822 296.25911407 -24.88328552 286.8409729 C-24.88696123 285.96293168 -24.89063693 285.08489047 -24.89442402 284.18024194 C-24.9043227 281.26804963 -24.90026954 278.35605134 -24.89624023 275.44384766 C-24.90063196 273.34364114 -24.90593574 271.24343637 -24.91207886 269.14323425 C-24.92354492 264.63459841 -24.92903578 260.12600935 -24.92996025 255.61735916 C-24.93190749 248.48057059 -24.94999641 241.34387825 -24.97071838 234.2071228 C-25.01981608 216.48208256 -25.05077556 198.7570163 -25.07202148 181.03192139 C-25.08856388 167.25104944 -25.11142742 153.47026041 -25.15504223 139.68944395 C-25.17676084 132.60267514 -25.18488185 125.51606409 -25.18264949 118.42926431 C-25.18432211 114.01135279 -25.19840653 109.59354339 -25.21586227 105.17566872 C-25.22143761 103.13598565 -25.22196944 101.0962812 -25.21692467 99.05659676 C-25.17481562 80.02824156 -28.04485014 63.18850395 -40.62890625 48.08203125 C-52.13970811 36.7964897 -68.50281493 31.77332113 -84.25756836 31.89038086 C-102.93345694 32.30906439 -118.57249662 36.09008365 -132.625 49.125 C-148.2239056 67.55770678 -149.93495446 88.71907587 -149.86450195 111.90307617 C-149.86561671 113.9774126 -149.86767745 116.05174871 -149.87060547 118.12608337 C-149.87530387 122.56919816 -149.87423271 127.01225997 -149.86882973 131.45537376 C-149.86118343 138.48683314 -149.87191524 145.51819176 -149.8860321 152.54963684 C-149.92367184 172.53594391 -149.94194827 192.52220394 -149.93041992 212.50854492 C-149.9241998 223.56504569 -149.93579756 234.62138248 -149.96686524 245.67784292 C-149.98548733 252.66242175 -149.98223288 259.64653484 -149.96269763 266.63110578 C-149.95580367 270.97904718 -149.96979613 275.32673728 -149.98964691 279.67463112 C-149.99468238 281.68452293 -149.99123994 283.69445736 -149.97851372 285.70431519 C-149.90876754 297.56553761 -149.98794523 306.64238702 -158.125 316 C-158.95 316.70125 -159.775 317.4025 -160.625 318.125 C-161.388125 318.82625 -162.15125 319.5275 -162.9375 320.25 C-171.19375477 326.01017775 -179.93120768 325.99104439 -189.625 325.125 C-197.21845395 323.31549608 -203.83249984 318.22713422 -208.19921875 311.8125 C-211.91745024 305.33489328 -212.77361819 300.27865952 -212.76544189 292.82633972 C-212.76841302 291.98160404 -212.77138414 291.13686836 -212.7744453 290.26653463 C-212.78312938 287.43052806 -212.78464039 284.59456373 -212.78613281 281.75854492 C-212.79076172 279.7263327 -212.79578648 277.69412135 -212.80117798 275.66191101 C-212.81430942 270.13185463 -212.82075006 264.60181041 -212.82518864 259.07174087 C-212.8281222 255.60877746 -212.83222786 252.14581735 -212.83669281 248.68285561 C-212.85037857 237.82630179 -212.86003618 226.96975553 -212.8638947 216.11319369 C-212.86835823 203.62493408 -212.88582182 191.13678487 -212.9148953 178.6485588 C-212.93662783 168.97346186 -212.94660535 159.29839568 -212.94793582 149.62327462 C-212.94897693 143.85736459 -212.95473341 138.09155815 -212.97275543 132.32567406 C-212.98943384 126.88293064 -212.99129748 121.4403664 -212.98261642 115.99760628 C-212.9818561 114.01897572 -212.98605268 112.04033475 -212.99607468 110.06172943 C-213.17713333 72.02798305 -205.37062857 34.31280968 -179.625 5.125 C-179.08617187 4.50238281 -178.54734375 3.87976563 -177.9921875 3.23828125 C-133.77733606 -44.42044053 -46.66965143 -40.33715226 0 0 Z " fill="#9B1915" transform="translate(2035.625,617.875)"/>
<path d="M0 0 C0.52142578 0.47743652 1.04285156 0.95487305 1.58007812 1.44677734 C2.52367187 2.30658203 3.46726562 3.16638672 4.43945312 4.05224609 C36.06583189 34.26183622 54.05455741 77.97259212 56.26757812 121.25927734 C56.32751953 122.19320312 56.38746094 123.12712891 56.44921875 124.08935547 C56.9580581 134.13370491 55.84825554 144.60519287 48.85742188 152.35693359 C40.90302646 159.80528397 33.10130429 162.05136423 22.36143494 161.92779541 C21.26343663 161.93121311 20.16543833 161.93463081 19.03416735 161.93815207 C15.37203671 161.94471629 11.71064657 161.92277791 8.04858398 161.90087891 C5.41674822 161.89975012 2.7849112 161.9003849 0.15307617 161.90264893 C-5.50429444 161.90474097 -11.16147977 161.89224739 -16.81880379 161.86969757 C-24.99819722 161.83711622 -33.17750155 161.82676431 -41.35695284 161.8217456 C-54.62921394 161.81300254 -67.9013764 161.78641389 -81.17358398 161.74853516 C-94.06225086 161.71178941 -106.95089089 161.68349022 -119.83959961 161.66650391 C-120.63476292 161.66545301 -121.42992623 161.66440212 -122.24918539 161.66331938 C-126.23849654 161.65809903 -130.22780787 161.65304425 -134.21711934 161.64807177 C-167.28479197 161.60664054 -200.3523437 161.53621915 -233.41992188 161.44677734 C-232.46482167 164.02138355 -231.50729032 166.59504102 -230.54833984 169.16821289 C-230.279384 169.89399284 -230.01042816 170.6197728 -229.73332214 171.36754608 C-219.01209766 200.091208 -197.03008136 223.48909583 -169.28320312 236.42333984 C-141.784733 248.6204984 -110.50211218 250.17423054 -82.10742188 239.95458984 C-64.02280413 232.5598203 -47.27490313 222.42006235 -34.79492188 207.13427734 C-30.46767756 201.96710109 -24.1636957 197.59359286 -17.41992188 196.44677734 C-6.81847466 195.63230848 1.87223406 196.50483329 10.39257812 203.19677734 C17.26357359 209.630233 20.54294816 217.32414416 20.95507812 226.69677734 C20.56892441 241.57385731 11.11189161 251.38345957 0.94335938 261.27099609 C-23.04362708 283.3548828 -51.5277818 298.51159059 -83.41992188 305.44677734 C-84.09829102 305.60903809 -84.77666016 305.77129883 -85.47558594 305.93847656 C-129.81342108 316.35131279 -177.88855828 305.29503629 -216.41992188 282.44677734 C-255.72224939 257.62265943 -284.91543994 217.54598575 -295.29492188 172.13427734 C-296.05442002 168.5805268 -296.75453162 165.01924696 -297.41992188 161.44677734 C-297.66613281 160.15255859 -297.91234375 158.85833984 -298.16601562 157.52490234 C-302.40862962 130.25513513 -299.5831361 101.69920107 -291.41992188 75.44677734 C-291.21560547 74.78581055 -291.01128906 74.12484375 -290.80078125 73.44384766 C-284.95655831 55.14122564 -275.37259029 37.45797787 -263.41992188 22.44677734 C-262.77289307 21.63273438 -262.77289307 21.63273438 -262.11279297 20.80224609 C-247.4723223 2.54308297 -230.62728602 -11.76933845 -210.41992188 -23.55322266 C-209.80004395 -23.91544922 -209.18016602 -24.27767578 -208.54150391 -24.65087891 C-142.13840085 -62.92844536 -56.04206215 -50.8977052 0 0 Z M-208.79492188 53.51708984 C-218.5740696 64.43131722 -233.41992188 85.04323876 -233.41992188 100.44677734 C-159.49992187 100.44677734 -85.57992188 100.44677734 -9.41992188 100.44677734 C-12.69195113 89.51011904 -12.69195113 89.51011904 -17.23242188 79.32177734 C-17.58224121 78.64638916 -17.93206055 77.97100098 -18.29248047 77.27514648 C-19.31756211 75.32237758 -20.36366093 73.38282193 -21.41992188 71.44677734 C-21.94199219 70.47869141 -22.4640625 69.51060547 -23.00195312 68.51318359 C-37.97006107 43.01055917 -65.46013149 25.41552824 -93.54443359 17.87646484 C-136.87161877 7.36025905 -178.09649136 22.03375627 -208.79492188 53.51708984 Z " fill="#9B1915" transform="translate(1730.419921875,634.55322265625)"/>
<path d="M0 0 C35.64332065 32.88281589 53.64102481 77.83463799 56 125.6875 C56.32869451 136.72943741 56.30869207 147.77696113 56.30158257 158.82285595 C56.30049582 162.17812968 56.30543747 165.53338521 56.310188 168.88865495 C56.32117852 176.80403972 56.32177652 184.71937697 56.31567383 192.63476562 C56.30960546 200.76029927 56.32204129 208.88566101 56.3432439 217.01116538 C56.36090498 224.04193834 56.36685526 231.07265671 56.36360615 238.10345101 C56.36180469 242.27972649 56.36431726 246.45587846 56.37832069 250.63213348 C56.39097322 254.54932207 56.38888562 258.4662418 56.37590981 262.38342667 C56.37356281 263.81035838 56.37621043 265.23730953 56.38453293 266.6642189 C56.44429997 277.71616412 56.15358969 289.10537084 48.73828125 297.9375 C42.32909297 304.38989629 36.22781539 307.85354262 26.93505859 308.11889648 C16.72476521 308.14741686 9.85010298 306.45093466 2.125 299.375 C-3.08007227 293.75253986 -5.9115993 287.21162757 -6.31640625 279.578125 C-6.35830078 278.82402344 -6.40019531 278.06992187 -6.44335938 277.29296875 C-6.50233398 276.12701172 -6.50233398 276.12701172 -6.5625 274.9375 C-6.60568359 274.14472656 -6.64886719 273.35195313 -6.69335938 272.53515625 C-6.79902991 270.58612185 -6.89997966 268.63683252 -7 266.6875 C-7.85980469 267.38875 -8.71960937 268.09 -9.60546875 268.8125 C-30.34566451 285.54142467 -53.50769058 296.92983579 -79.3125 303.5 C-80.07530273 303.69489014 -80.83810547 303.88978027 -81.62402344 304.09057617 C-94.82275462 307.26706334 -107.86341983 308.10034379 -121.375 308.0625 C-122.21004059 308.06095917 -123.04508118 308.05941833 -123.90542603 308.05783081 C-171.19812409 307.85081985 -212.6365573 289.73058161 -247 257.6875 C-247.73992188 257.00171875 -248.47984375 256.3159375 -249.2421875 255.609375 C-275.31733403 230.55496375 -291.58911666 195.89593416 -298 160.6875 C-298.13132324 159.9670752 -298.26264648 159.24665039 -298.39794922 158.50439453 C-305.89667618 114.74253917 -295.47928238 66.87973488 -270.41748047 30.23657227 C-242.00397107 -9.87960327 -200.57288063 -36.43672508 -152.41015625 -46.02734375 C-96.45800813 -55.31879138 -41.77795826 -37.72963008 0 0 Z M-209.69140625 53.59765625 C-232.96459764 80.56613299 -239.61781856 110.90208313 -238 145.6875 C-235.43837368 173.90738342 -218.98373688 201.30506102 -197.734375 219.54296875 C-171.84541133 239.84731311 -141.15128461 249.78200889 -108.1953125 246.22265625 C-76.98198967 242.2086466 -48.84621179 226.38041496 -29.43359375 201.5 C-27.14015551 198.3091294 -25.01620212 195.05714527 -23 191.6875 C-22.43007324 190.74680664 -22.43007324 190.74680664 -21.84863281 189.78710938 C-6.0495231 163.24252109 -1.83080196 131.68606815 -9 101.6875 C-13.2946977 84.78803913 -21.86044335 69.04277138 -33 55.6875 C-33.64453125 54.89214844 -34.2890625 54.09679687 -34.953125 53.27734375 C-53.09071059 31.78504213 -82.17781329 17.35406062 -110 14.6875 C-148.51093162 12.33862512 -183.32759849 25.09107166 -209.69140625 53.59765625 Z " fill="#9B1915" transform="translate(3725,635.3125)"/>
<path d="M0 0 C0.60682617 0.32081543 1.21365234 0.64163086 1.83886719 0.97216797 C14.95860141 7.94269055 26.24273552 16.78139088 37 27 C37.52706543 27.4945166 38.05413086 27.9890332 38.59716797 28.49853516 C71.965464 59.98183187 91.85342786 104.36344638 93.203125 150.26171875 C93.88726496 197.48036612 78.4332385 242.08998683 46.00390625 276.83984375 C44.13083421 278.85896429 42.38063159 280.94163063 40.625 283.0625 C36.28917197 288.02483529 31.17117201 291.94801254 26 296 C24.53240234 297.20849609 24.53240234 297.20849609 23.03515625 298.44140625 C-3.9846419 320.21398005 -40.76504573 333.99197758 -75.5234375 334.203125 C-76.30297287 334.21018463 -77.08250824 334.21724426 -77.88566589 334.22451782 C-110.25982625 334.45132326 -110.25982625 334.45132326 -124 331 C-124.82097168 330.80132324 -125.64194336 330.60264648 -126.48779297 330.39794922 C-172.73512469 318.94974083 -212.97353299 290.78110529 -238 250 C-263.53180797 206.07110148 -270.21017144 156.9959043 -257.75488281 107.76464844 C-254.13625573 94.51195337 -248.59888785 82.01973157 -242 70 C-241.65211426 69.36610352 -241.30422852 68.73220703 -240.94580078 68.07910156 C-230.20408637 48.7980929 -215.59223552 31.36405874 -198 18 C-197.06800781 17.26394531 -196.13601562 16.52789063 -195.17578125 15.76953125 C-138.86280437 -27.91249754 -62.55839153 -33.69659575 0 0 Z M-161 68 C-161.9075 68.73347656 -162.815 69.46695313 -163.75 70.22265625 C-185.24408989 88.51095149 -198.9300452 116.1026226 -202 144 C-204.28234999 175.15946491 -196.84733802 206.08884187 -176.40771484 230.39306641 C-167.66275225 240.37560955 -158.4032369 249.12829852 -147 256 C-146.42846191 256.34611328 -145.85692383 256.69222656 -145.26806641 257.04882812 C-119.04640253 272.67391837 -87.64848806 277.19225023 -58 270 C-40.5553364 265.4718589 -24.86936103 257.50861873 -11 246 C-10.10152344 245.27683594 -9.20304687 244.55367187 -8.27734375 243.80859375 C4.7393558 232.73971687 14.32555338 218.63914454 21 203 C21.28456055 202.3414502 21.56912109 201.68290039 21.86230469 201.00439453 C33.82795867 172.79767165 33.26143709 141.04206946 22.01953125 112.69140625 C17.29990573 101.38712311 11.10046585 91.19936625 3 82 C2.31421875 81.18273437 1.6284375 80.36546875 0.921875 79.5234375 C-16.492259 59.29046886 -40.72629923 46.28554718 -67 42 C-68.05058594 41.81695313 -69.10117188 41.63390625 -70.18359375 41.4453125 C-103.21195051 37.59144078 -135.4490333 46.57135496 -161 68 Z " fill="#9B1915" transform="translate(2688,609)"/>
<path d="M0 0 C0.87840935 -0.00367669 1.7568187 -0.00735338 2.66184652 -0.01114148 C5.61110793 -0.02217191 8.56033409 -0.02602109 11.50961304 -0.02983093 C13.62203076 -0.0360961 15.73444738 -0.04274294 17.84686279 -0.04974365 C24.78961419 -0.07078118 31.73236579 -0.08114616 38.67514038 -0.09111023 C41.06593207 -0.09515798 43.45672365 -0.09927491 45.84751511 -0.10346031 C57.08046494 -0.12251176 68.31340821 -0.13674257 79.5463711 -0.14507228 C92.5085243 -0.15484316 105.47050666 -0.18115913 118.43259966 -0.22157317 C128.45398656 -0.2517451 138.47532452 -0.26654221 148.49675596 -0.26985329 C154.48082074 -0.27220265 160.46470301 -0.28114849 166.44871902 -0.30631447 C172.08105583 -0.32961864 177.71309025 -0.33381881 183.3454628 -0.32355309 C185.40857449 -0.32305818 187.47170118 -0.32936517 189.53476715 -0.34310913 C202.64807598 -0.4255552 213.5228267 -0.37397685 223.62826538 9.07685852 C228.49376146 14.80733169 231.50757963 21.86554501 231.51750565 29.36150932 C231.52134679 30.448318 231.52518794 31.53512668 231.52914548 32.65486896 C231.528279 33.85356369 231.52741251 35.05225841 231.52651978 36.28727722 C231.53097646 38.19224997 231.53097646 38.19224997 231.53552318 40.13570702 C231.54360203 43.66848429 231.54538326 47.20124126 231.54612064 50.73402667 C231.54796994 54.54218768 231.5555172 58.35033813 231.56225586 62.15849304 C231.57585143 70.49416887 231.58186732 78.82983989 231.58626652 87.16552496 C231.5890299 92.37676565 231.59326772 97.58800449 231.59777069 102.79924393 C231.60997067 117.24184744 231.62026482 131.68444947 231.62364578 146.12705803 C231.62386535 147.05199979 231.62408491 147.97694156 231.62431113 148.92991186 C231.62452941 149.85703658 231.62474769 150.78416131 231.62497258 151.73938072 C231.62541604 153.6179866 231.6258626 155.49659248 231.62631226 157.37519836 C231.62653369 158.30704638 231.62675512 159.23889439 231.62698326 160.19898023 C231.63092114 175.25809829 231.6483409 190.31716765 231.67167178 205.37626694 C231.69546005 220.85650512 231.70785122 236.33671898 231.7090137 251.81697571 C231.70992689 260.50034935 231.71558768 269.18365974 231.73383331 277.86701584 C231.74933626 285.27119912 231.75429575 292.67529967 231.74609521 300.07949613 C231.74222285 303.84917694 231.74294769 307.61869171 231.75715256 311.38835144 C231.90832435 354.03674512 223.2082274 392.88091932 198.38607788 428.14717102 C197.96519897 428.74594055 197.54432007 429.34471008 197.11068726 429.96162415 C168.81159968 469.49121577 125.04203062 494.07856818 77.82870483 502.76167297 C71.68523689 503.73124178 65.69704011 504.30135012 59.47640991 504.34004211 C58.73052612 504.3482196 57.98464233 504.35639709 57.21615601 504.36482239 C54.77540848 504.38940726 52.33471781 504.40611854 49.89389038 504.42060852 C49.0531686 504.4259322 48.21244682 504.43125587 47.34624863 504.43674088 C42.8997362 504.46335001 38.45325071 504.4827672 34.00668335 504.49726868 C30.34627348 504.51061714 26.68641981 504.53850406 23.0262146 504.57929993 C18.58190905 504.62880999 14.13810815 504.6534104 9.69353867 504.66049576 C8.01034895 504.66717185 6.32716891 504.68229796 4.64413834 504.70638657 C-6.3605911 504.85497091 -14.85369293 504.15606597 -23.48892212 496.64717102 C-24.19017212 495.82217102 -24.89142212 494.99717102 -25.61392212 494.14717102 C-26.66579712 493.00248352 -26.66579712 493.00248352 -27.73892212 491.83467102 C-33.58315405 483.45793858 -33.65961305 474.48949548 -32.25064087 464.59638977 C-30.30942778 457.16167571 -24.69535104 450.86812364 -18.38735962 446.66279602 C-12.91193393 443.83280072 -8.39701594 443.02462617 -2.3109436 442.98945618 C-0.39130043 442.97406296 -0.39130043 442.97406296 1.56712341 442.95835876 C2.24997972 442.95492085 2.93283604 442.95148293 3.63638496 442.94794083 C5.79693053 442.93605782 7.9572845 442.9165716 10.11775208 442.89482117 C16.26075554 442.83359399 22.40374665 442.77968188 28.54696655 442.74580383 C68.64994958 442.51198798 103.51876648 436.29058938 133.72982788 407.90107727 C158.53557069 382.18335862 169.50964015 349.9390108 169.54429626 314.64369202 C169.54923424 313.55129754 169.55417222 312.45890307 169.55925983 311.33340573 C169.57449907 307.70850337 169.58295826 304.08361852 169.59140015 300.45869446 C169.60098937 297.84611866 169.61100005 295.23354438 169.62139893 292.62097168 C169.64305391 287.01448537 169.66123792 281.40799663 169.67700386 275.80149078 C169.69980333 267.69561835 169.72793163 259.58977114 169.75732314 251.48392025 C169.80487626 238.32985227 169.84817333 225.17577391 169.88876343 212.02168274 C169.9281811 199.25051569 169.96962215 186.47935782 170.01376343 173.70820618 C170.01784984 172.52560446 170.01784984 172.52560446 170.0220188 171.31911179 C170.03569931 167.36358041 170.04941938 163.40804916 170.06315911 159.45251799 C170.17693075 126.684088 170.28378238 93.91563887 170.38607788 61.14717102 C169.46247026 61.15177999 168.53886265 61.15638895 167.58726692 61.16113758 C145.09350195 61.27223213 122.59977265 61.35434562 100.10579109 61.40623188 C89.22776655 61.43199191 78.34992345 61.46710047 67.47201538 61.52436829 C57.98865156 61.57427051 48.50541919 61.60647803 39.02192771 61.61761349 C34.00239974 61.62412068 28.98324773 61.63936863 23.96384048 61.6758213 C19.23435966 61.70988849 14.50540784 61.72020237 9.77581596 61.71270943 C8.04487542 61.71407919 6.31391624 61.72394767 4.5830822 61.74319839 C-6.39548358 61.85926229 -14.8740989 61.13832165 -23.48892212 53.64717102 C-24.19017212 52.82217102 -24.89142212 51.99717102 -25.61392212 51.14717102 C-26.31517212 50.38404602 -27.01642212 49.62092102 -27.73892212 48.83467102 C-33.58315405 40.45793858 -33.65961305 31.48949548 -32.25064087 21.59638977 C-30.30942778 14.16167571 -24.69535104 7.86812364 -18.38735962 3.66279602 C-12.18380428 0.45646405 -6.86433182 -0.00153962 0 0 Z " fill="#9B1915" transform="translate(1158.6139221191406,438.8528289794922)"/>
<path d="M0 0 C39.6 0 79.2 0 120 0 C120 113.19 120 226.38 120 343 C115.72468326 341.28987331 114.16039244 340.54064659 111.07421875 337.55078125 C110.00204102 336.52500977 110.00204102 336.52500977 108.90820312 335.47851562 C107.80895508 334.40633789 107.80895508 334.40633789 106.6875 333.3125 C105.23441998 331.91136207 103.77999888 330.51161356 102.32421875 329.11328125 C101.60685547 328.42395508 100.88949219 327.73462891 100.15039062 327.02441406 C97.44306353 324.4756906 94.65351123 322.03395517 91.84204102 319.60131836 C89.22301457 317.32455302 86.67584569 314.97799616 84.125 312.625 C80.43527804 309.22877865 76.7329327 305.84883673 73 302.5 C68.79315673 298.72462783 64.62325147 294.91019552 60.4609375 291.0859375 C57.32332914 288.20577393 54.16979059 285.34468386 51 282.5 C46.79238739 278.7239374 42.62157628 274.90895993 38.45874023 271.08374023 C35.34366875 268.22397796 32.21148325 265.38484641 29.0625 262.5625 C24.56444014 258.52800831 20.12623095 254.43171972 15.70019531 250.31860352 C12.0505352 246.93672331 8.33253718 243.66101558 4.48828125 240.5 C0.97200313 236.95603465 0.72004099 233.46982031 0.58937073 228.6113739 C0.57022468 227.97004709 0.55107863 227.32872029 0.5313524 226.66795933 C0.47076697 224.51143839 0.42532708 222.35491298 0.38110352 220.19799805 C0.34315775 218.63819727 0.30510477 217.07839909 0.26695347 215.51860332 C-0.18436895 195.70420946 -0.12829151 175.8836301 -0.10139394 156.06539369 C-0.09502242 150.55358147 -0.09454595 145.04176833 -0.09336853 139.529953 C-0.09029499 129.15423498 -0.08213689 118.77852785 -0.07201904 108.40281457 C-0.05861024 94.33851645 -0.05332577 80.27421522 -0.04751682 66.2099123 C-0.03819297 44.13993342 -0.01824803 22.06997749 0 0 Z " fill="#9B1915" transform="translate(2589,118)"/>
<path d="M0 0 C39.27 0 78.54 0 119 0 C119.1209091 58.18862518 119.1209091 58.18862518 119.14648438 82.53125 C119.152358 88.09375027 119.15841945 93.65625028 119.16479492 99.21875 C119.16558617 99.91591936 119.16637741 100.61308872 119.16719264 101.33138442 C119.1802408 112.58686179 119.20389238 123.84229318 119.23145839 135.09774329 C119.25951235 146.64875866 119.27595168 158.1997417 119.28226548 169.75079048 C119.28618039 176.23889607 119.29539744 182.72689742 119.31719017 189.21496964 C119.33753031 195.31995784 119.34383875 201.42479871 119.33932304 207.52981758 C119.34014935 209.77198525 119.34612959 212.01415776 119.35761642 214.25629616 C119.37252158 217.31534308 119.36896056 220.37383226 119.36076355 223.43289185 C119.36950207 224.32200575 119.3782406 225.21111965 119.38724393 226.1271764 C119.34421512 232.05998938 118.34111841 236.28352701 114.34936523 240.9152832 C113.75841064 241.45499756 113.16745605 241.99471191 112.55859375 242.55078125 C111.89762695 243.16211914 111.23666016 243.77345703 110.55566406 244.40332031 C109.85666992 245.03334961 109.15767578 245.66337891 108.4375 246.3125 C107.7165918 246.97475586 106.99568359 247.63701172 106.25292969 248.31933594 C104.17691643 250.22227055 102.09066993 252.11319535 100 254 C99.05769531 254.85464844 98.11539063 255.70929688 97.14453125 256.58984375 C95.57124465 258.00913819 93.99451669 259.4246289 92.4140625 260.8359375 C89.63278293 263.32918812 86.87658871 265.84911034 84.125 268.375 C83.62339355 268.83535645 83.12178711 269.29571289 82.60498047 269.77001953 C81.06965475 271.17965181 79.53475041 272.58974138 78 274 C71.54903192 279.92769564 65.08281284 285.8359372 58.5625 291.6875 C55.69399555 294.27615036 52.84527019 296.88589108 50 299.5 C43.90012856 305.10303176 37.74438837 310.64212914 31.578125 316.171875 C26.28923319 320.92136886 26.28923319 320.92136886 21.0546875 325.73046875 C3.52889775 342 3.52889775 342 0 342 C0 229.14 0 116.28 0 0 Z " fill="#9B1915" transform="translate(2734,108)"/>
<path d="M0 0 C-4.14884787 30.87217739 -8.50907333 61.71196546 -12.96546936 92.54104233 C-13.37543701 95.37802412 -13.78487613 98.2150818 -14.19421387 101.05215454 C-14.84604334 105.5686007 -15.49949263 110.0848096 -16.1542778 114.60082817 C-16.39831252 116.28493706 -16.64193393 117.96910589 -16.88512039 119.65333748 C-17.22075943 121.97660485 -17.55813568 124.29961337 -17.89599609 126.62255859 C-18.04244127 127.63972946 -18.04244127 127.63972946 -18.19184494 128.67744923 C-18.69780956 132.14206154 -19.27581757 135.57414483 -20 139 C-24.04288318 137.35362107 -26.93472101 134.512264 -30.0625 131.5625 C-30.63250732 131.03116455 -31.20251465 130.4998291 -31.78979492 129.95239258 C-36.46763125 125.56574295 -40.98474053 121.03388293 -45.49609375 116.4765625 C-50.38052612 111.64547026 -55.58774576 107.22832363 -61 103 C-66.31574177 105.04451606 -69.57300521 108.34676955 -73.4609375 112.453125 C-76.16546712 115.16597625 -79.00457816 117.65090643 -81.89892578 120.15722656 C-85.26048963 123.10552821 -88.501252 126.17858101 -91.75 129.25 C-97.48814337 134.65236904 -103.25935409 140.01259914 -109.078125 145.328125 C-112.20643985 148.18877655 -115.3236772 151.0610975 -118.4375 153.9375 C-119.24803833 154.68616333 -119.24803833 154.68616333 -120.07495117 155.44995117 C-121.16964892 156.46120612 -122.26429396 157.47251812 -123.35888672 158.48388672 C-126.61239388 161.48958138 -129.86763876 164.49339394 -133.12255859 167.49755859 C-135.84399973 170.00946922 -138.56501749 172.52183529 -141.28515625 175.03515625 C-147.00708317 180.32112683 -152.73783427 185.59710804 -158.48291016 190.85791016 C-164.33774134 196.22148052 -170.16830321 201.61130451 -176 207 C-183.82409885 214.22974594 -191.65903704 221.44721261 -199.51611328 228.64111328 C-202.01164407 230.92642496 -204.50574527 233.2132958 -207 235.5 C-207.99999325 236.41667404 -208.99999324 237.3333407 -210 238.25 C-210.495 238.70375 -210.99 239.1575 -211.5 239.625 C-213 241 -214.5 242.375 -216 243.75 C-216.49516113 244.20391113 -216.99032227 244.65782227 -217.50048828 245.12548828 C-218.49880661 246.04058633 -219.49717886 246.95562555 -220.49560547 247.87060547 C-223.0217842 250.18578852 -225.54696832 252.5020401 -228.0703125 254.8203125 C-233.50205325 259.80864585 -238.95753194 264.76858299 -244.4453125 269.6953125 C-248.81108694 273.63385519 -253.13794189 277.61482661 -257.46777344 281.59277344 C-259.47911512 283.44002861 -261.49223074 285.28534296 -263.50561523 287.13037109 C-264.50016173 288.04188977 -265.49446602 288.95367278 -266.48852539 289.86572266 C-269.04648512 292.21229805 -271.6080456 294.55474794 -274.17578125 296.890625 C-279.00032926 301.28552866 -283.76497761 305.70615944 -288.3359375 310.3671875 C-290.91991889 312.90264342 -293.65587483 315.25583045 -296.3984375 317.6171875 C-297.28852819 318.38570483 -298.16847119 319.16847119 -299 320 C-303.1754809 320.44851713 -305.08822768 319.63310939 -308.34375 317.0625 C-309.57859131 316.1031958 -309.57859131 316.1031958 -310.83837891 315.12451172 C-311.71671387 314.42342285 -312.59504883 313.72233398 -313.5 313 C-315.39302203 311.52317196 -317.28625716 310.04661702 -319.1796875 308.5703125 C-320.14616211 307.81008789 -321.11263672 307.04986328 -322.10839844 306.26660156 C-326.58162363 302.76023356 -331.10181497 299.31652626 -335.625 295.875 C-336.49294189 295.21258301 -337.36088379 294.55016602 -338.25512695 293.86767578 C-344.79726067 288.88429777 -351.41099994 284.00472909 -358.04736328 279.14794922 C-364.20222811 274.62718751 -370.22889619 269.95730899 -376.23779297 265.24511719 C-381.528505 261.10976857 -386.89369713 257.09071607 -392.3125 253.125 C-401.74311408 246.22213942 -411.039941 239.1522428 -420.32080078 232.04980469 C-438.19666913 218.35778069 -438.19666913 218.35778069 -456.20703125 204.84375 C-458.86642101 202.86698066 -461.47786139 200.84002467 -464.07421875 198.78125 C-464.74340332 198.26216064 -465.41258789 197.74307129 -466.10205078 197.20825195 C-467.3693477 196.22518937 -468.6252469 195.22717456 -469.86669922 194.21166992 C-472.78839454 191.97527493 -474.76691061 191.01898466 -478.453125 190.71875 C-483.54899372 192.55954839 -486.18395786 195.78679739 -489.6875 199.8125 C-491.09470212 201.37128465 -492.5035696 202.92856744 -493.9140625 204.484375 C-494.6040332 205.25330078 -495.29400391 206.02222656 -496.00488281 206.81445312 C-499.60533698 210.75856298 -503.43487559 214.46106135 -507.25390625 218.19140625 C-509.33639164 220.32128818 -511.27930893 222.45832097 -513.21484375 224.71484375 C-518.35699959 230.65251764 -524.02505765 236.06945977 -529.6171875 241.578125 C-530.46539063 242.41859375 -531.31359375 243.2590625 -532.1875 244.125 C-532.94417969 244.87007812 -533.70085938 245.61515625 -534.48046875 246.3828125 C-536.41843489 248.39589361 -538.23438837 250.42408226 -540.04711914 252.54492188 C-545.09711682 258.35876125 -550.6036037 263.72734694 -556.05859375 269.15625 C-557.21466163 270.31044894 -558.37050606 271.46487172 -559.52613831 272.61950684 C-562.5438333 275.63341408 -565.56452087 278.64430403 -568.58587646 281.65454102 C-571.67823147 284.73660074 -574.76769868 287.82155233 -577.85742188 290.90625 C-583.90215112 296.94030804 -589.95005006 302.97117643 -596 309 C-596.33 308.34 -596.66 307.68 -597 307 C-596.23413086 305.28613281 -596.23413086 305.28613281 -594.96484375 303.203125 C-594.25666504 302.03015869 -594.25666504 302.03015869 -593.53417969 300.83349609 C-593.00727539 299.98094238 -592.48037109 299.12838867 -591.9375 298.25 C-591.12200684 296.91122803 -591.12200684 296.91122803 -590.29003906 295.54541016 C-585.78573438 288.18649917 -581.15501465 280.90863874 -576.50024414 273.64428711 C-571.87604725 266.41681059 -567.35938905 259.12742305 -562.875 251.8125 C-557.80338771 243.54148074 -552.69295792 235.29937186 -547.49853516 227.10498047 C-538.15789117 212.36863406 -528.94138881 197.55585489 -519.8125 182.6875 C-514.77098047 174.47685293 -509.69076326 166.29420893 -504.53125 158.15722656 C-500.26745362 151.43242749 -496.03544863 144.68802009 -491.8125 137.9375 C-491.1517749 136.88288574 -490.4910498 135.82827148 -489.81030273 134.74169922 C-489.19872314 133.76346191 -488.58714355 132.78522461 -487.95703125 131.77734375 C-487.41022705 130.90327881 -486.86342285 130.02921387 -486.30004883 129.12866211 C-484.99166523 127.05376967 -484.99166523 127.05376967 -484 125 C-479.83063808 126.75279146 -476.59311568 129.60310647 -473.125 132.4375 C-471.77260262 133.53182763 -470.41972755 134.62556516 -469.06640625 135.71875 C-468.38465332 136.27046875 -467.70290039 136.8221875 -467.00048828 137.390625 C-464.04405328 139.76905062 -461.05391018 142.10333922 -458.0625 144.4375 C-452.30336098 148.94198697 -446.62570254 153.54117318 -440.96118164 158.16381836 C-436.11526665 162.11175706 -431.21838882 165.98791855 -426.29125977 169.83374023 C-421.79336154 173.35375146 -417.36014298 176.94856888 -412.9375 180.5625 C-408.17826054 184.44981773 -403.38625653 188.27339891 -398.5 192 C-392.91163386 196.26207899 -387.45371487 200.66639299 -382.01171875 205.11328125 C-377.71063392 208.62336198 -373.37623814 212.08417075 -369 215.5 C-363.95146007 219.44185271 -358.96248301 223.45037614 -354 227.5 C-346.73667048 233.42465971 -339.38856385 239.23269816 -332 245 C-321.90208806 252.88214155 -311.9207855 260.89587782 -302 269 C-297.87822668 266.77201442 -294.93387897 264.11383118 -291.6875 260.75 C-287.87790487 256.84805105 -283.97570056 253.14998828 -279.828125 249.609375 C-277.35966031 247.43628215 -275.08464637 245.09527631 -272.78125 242.75 C-270.28103815 240.29365151 -267.62319484 238.03690632 -264.96875 235.75 C-263.06976929 234.06201714 -261.27994012 232.31230266 -259.5 230.5 C-256.46167583 227.40643357 -253.2523468 224.57894493 -249.96875 221.75 C-248.06976929 220.06201714 -246.27994012 218.31230266 -244.5 216.5 C-241.46167583 213.40643357 -238.2523468 210.57894493 -234.96875 207.75 C-233.06976929 206.06201714 -231.27994012 204.31230266 -229.5 202.5 C-226.46167583 199.40643357 -223.2523468 196.57894493 -219.96875 193.75 C-218.06976929 192.06201714 -216.27994012 190.31230266 -214.5 188.5 C-211.46167583 185.40643357 -208.2523468 182.57894493 -204.96875 179.75 C-203.06976929 178.06201714 -201.27994012 176.31230266 -199.5 174.5 C-196.46167583 171.40643357 -193.2523468 168.57894493 -189.96875 165.75 C-188.06976929 164.06201714 -186.27994012 162.31230266 -184.5 160.5 C-181.46167583 157.40643357 -178.2523468 154.57894493 -174.96875 151.75 C-173.06976929 150.06201714 -171.27994012 148.31230266 -169.5 146.5 C-166.46167583 143.40643357 -163.2523468 140.57894493 -159.96875 137.75 C-158.06976929 136.06201714 -156.27994012 134.31230266 -154.5 132.5 C-151.46167583 129.40643357 -148.2523468 126.57894493 -144.96875 123.75 C-143.06976929 122.06201714 -141.27994012 120.31230266 -139.5 118.5 C-136.46167583 115.40643357 -133.2523468 112.57894493 -129.96875 109.75 C-128.06976929 108.06201714 -126.27994012 106.31230266 -124.5 104.5 C-121.46167583 101.40643357 -118.2523468 98.57894493 -114.96875 95.75 C-112.46364625 93.52324111 -110.13656826 91.14819508 -107.7890625 88.7578125 C-105.25187764 86.26494528 -102.56058904 83.96588705 -99.8671875 81.64453125 C-97.46487962 79.52869105 -95.22791166 77.2975339 -93 75 C-94.46909786 69.55079306 -98.24363154 66.46133739 -102.1875 62.6875 C-103.55644426 61.34945121 -104.9236561 60.00962753 -106.2890625 58.66796875 C-106.9377832 58.03165527 -107.58650391 57.3953418 -108.25488281 56.73974609 C-111.35695606 53.64722035 -114.20103859 50.36487164 -117 47 C-118.14454121 45.66555733 -119.2903369 44.33218941 -120.4375 43 C-121.283125 42.01 -122.12875 41.02 -123 40 C-116.42913245 37.29035715 -109.82440595 34.85822182 -103.0625 32.671875 C-102.12407761 32.36560181 -101.18565521 32.05932861 -100.21879578 31.74377441 C-97.1469703 30.74241335 -94.07354186 29.74607917 -91 28.75 C-88.84215246 28.04800928 -86.68435713 27.34585805 -84.52661133 26.64355469 C-66.48686687 20.77901602 -48.42294787 14.98958458 -30.34960938 9.22949219 C-28.36197321 8.59572182 -26.37434279 7.96193342 -24.38671875 7.328125 C-22.99040726 6.88336823 -22.99040726 6.88336823 -21.56588745 6.42962646 C-15.69585233 4.55559646 -9.84745476 2.63109943 -4.02270508 0.62011719 C-2 0 -2 0 0 0 Z " fill="#9B1915" transform="translate(3007,221)"/>
<path d="M0 0 C7.37190182 5.67921191 10.73420266 13.66298084 12.0078125 22.71484375 C12.30420931 28.77537536 12.27807109 34.82971672 12.26177979 40.89624023 C12.26408558 42.7620045 12.2672629 44.62776786 12.27123427 46.49352932 C12.27957456 51.6093558 12.27546045 56.72510755 12.26926184 61.84093428 C12.26473524 67.36247734 12.27172215 72.88400758 12.27722168 78.4055481 C12.28611508 89.21785648 12.28419389 100.03013709 12.2783964 110.84244657 C12.27387972 119.6298198 12.27326704 128.41718526 12.27544403 137.20455933 C12.2757505 138.45520469 12.27605696 139.70585006 12.27637272 140.99439377 C12.27701217 143.53505238 12.27766059 146.07571099 12.2783179 148.61636961 C12.28385846 171.76120192 12.27811259 194.90601973 12.2676327 218.05084871 C12.25814174 239.1722536 12.258991 260.29363438 12.26855469 281.41503906 C12.2792676 305.1537571 12.28347172 328.89246347 12.27733016 352.63118458 C12.27669306 355.16249911 12.27606432 357.69381364 12.27544403 360.22512817 C12.27513548 361.47058472 12.27482693 362.71604126 12.27450903 363.99923891 C12.27278215 372.77609705 12.27569704 381.55294665 12.28040314 390.32980347 C12.28601218 401.02577847 12.28449499 411.72172412 12.27384165 422.41769576 C12.26858529 427.87495779 12.26652764 433.33217086 12.27313995 438.78943253 C12.27910217 443.78572049 12.2758197 448.78191417 12.26518485 453.77819359 C12.262952 455.58493587 12.26408454 457.39168612 12.26893643 459.19842327 C12.30277907 472.84847961 12.11412862 484.00102853 2.33984375 494.5078125 C-5.19459953 501.49053453 -13.17284542 502.42262102 -23.078125 502.0546875 C-31.73520334 501.30302501 -37.43239602 498.23349632 -43.30078125 491.8671875 C-48.89352212 484.75032787 -50.14486158 477.90992633 -50.12640858 468.99319267 C-50.12876081 468.21913224 -50.13111304 467.4450718 -50.13353655 466.64755499 C-50.14021268 464.04439067 -50.13976874 461.44127641 -50.13935852 458.83810425 C-50.142658 456.95659405 -50.14638375 455.07508456 -50.1505 453.19357598 C-50.16051841 448.01558918 -50.16423653 442.83761397 -50.16688931 437.65961885 C-50.17079278 432.07798043 -50.18037103 426.49635119 -50.18910217 420.91471863 C-50.20886443 407.43202173 -50.21893208 393.94932409 -50.22782996 380.46661633 C-50.23221289 374.11827844 -50.23757965 367.76994139 -50.24281883 361.42160416 C-50.25983019 340.32037721 -50.27434974 319.21915062 -50.28156757 298.11791801 C-50.28204233 296.75351846 -50.28251822 295.38911891 -50.28299524 294.02471936 C-50.28323161 293.34810774 -50.28346799 292.67149611 -50.28371153 291.97438109 C-50.28491271 288.54639729 -50.28612817 285.11841349 -50.28735352 281.69042969 C-50.28759367 281.01013936 -50.28783382 280.32984903 -50.28808124 279.62894384 C-50.29597361 257.57389399 -50.3194048 235.51889793 -50.35190946 213.46387157 C-50.38622022 190.14075427 -50.40591871 166.81767288 -50.40921181 143.49452603 C-50.41137765 130.78284476 -50.42013729 118.07124256 -50.44567299 105.35958481 C-50.46736741 94.53509631 -50.47543652 83.7107061 -50.46570621 72.88619833 C-50.46115803 67.36384735 -50.46307811 61.84169922 -50.48246765 56.31937599 C-50.50007458 51.26106141 -50.49912147 46.20309801 -50.48357036 41.14477982 C-50.48119057 39.31768889 -50.48553705 37.49057381 -50.49739901 35.66351984 C-50.57789007 22.44388411 -49.75342383 11.61089059 -40.1484375 1.59375 C-28.94378484 -8.16972451 -12.14058001 -7.83186436 0 0 Z " fill="#9B1915" transform="translate(2367.9921875,441.28515625)"/>
<path d="M0 0 C37.29 0 74.58 0 113 0 C113 34.98 113 69.96 113 106 C109.99924573 104.49962287 108.05578059 103.37960453 105.56640625 101.3125 C104.92396973 100.78358154 104.2815332 100.25466309 103.61962891 99.7097168 C102.94077637 99.14551025 102.26192383 98.58130371 101.5625 98 C96.4748024 93.81589326 91.36418028 89.68069066 86.125 85.6875 C80.68450258 81.53750759 75.32190688 77.30077351 70 73 C67.33338527 75.43900156 65.52279257 78.11683456 63.59375 81.1640625 C62.93810059 82.19490967 62.28245117 83.22575684 61.60693359 84.2878418 C60.91164551 85.389104 60.21635742 86.49036621 59.5 87.625 C58.77339275 88.7695688 58.04633839 89.91385387 57.31884766 91.05786133 C56.22671769 92.77532451 55.13482077 94.49292886 54.04434204 96.21144104 C51.18203087 100.72153911 48.28718744 105.20951315 45.375 109.6875 C40.59931751 117.04429076 35.89326584 124.44457051 31.19091797 131.84838867 C27.2279409 138.08343645 23.23392712 144.29701246 19.20556641 150.48999023 C16.52241572 154.62267619 13.87250577 158.77486032 11.2421875 162.94140625 C10.60087891 163.95589844 9.95957031 164.97039062 9.29882812 166.015625 C8.03146329 168.0228221 6.76706358 170.03189496 5.50585938 172.04296875 C4.93416016 172.94789063 4.36246094 173.8528125 3.7734375 174.78515625 C3.26216309 175.59863525 2.75088867 176.41211426 2.22412109 177.25024414 C1.61818115 178.11637329 1.61818115 178.11637329 1 179 C0.67 179 0.34 179 0 179 C0 119.93 0 60.86 0 0 Z " fill="#9B1915" transform="translate(2455,263)"/>
</svg>
